<svg id="logo" xmlns="http://www.w3.org/2000/svg" width="60px" height="60px" viewBox="0 0 128 128">
<g>
	<path  fill-opacity="0.7" fill="#ED6C30" d="M0.43,64c0,35.11,28.46,63.58,63.57,63.58S127.57,99.11,127.57,64c0-35.11-28.46-63.58-63.57-63.58   S0.43,28.89,0.43,64z M103.94,90.95L37.05,24.06c7.69-5.2,16.96-8.24,26.95-8.24c26.6,0,48.18,21.57,48.18,48.18   C112.18,73.99,109.14,83.26,103.94,90.95z M15.82,64c0-9.98,3.04-19.26,8.24-26.95l66.9,66.89c-7.7,5.2-16.98,8.24-26.96,8.24   C37.4,112.18,15.82,90.61,15.82,64z"/>
</g>
</svg>