<svg id="logo" xmlns="http://www.w3.org/2000/svg" viewBox="0 0 286 215.56">
  <title>Stepstones Logo</title>
  <g>
    <g>
      <path id="kopf" class="logo_color" d="M85.45,50.27A13.28,13.28,0,1,0,73.26,36,13.3,13.3,0,0,0,85.45,50.27"/></g>
      <g id="g7754">
        <path id="figur" class="logo_color" d="M74.18,55.73a13.63,13.63,0,0,1,19.93,3.88l13.38,26.61,18.3,12.58a6,6,0,0,1-4.09,10.72,7.53,7.53,0,0,1-2.74-.85L99,94.92a7.76,7.76,0,0,1-1.53-1.79l-5-9.94-6,26.48L110,137.52a8.62,8.62,0,0,1,1.11,2.87L117.51,174c-.05.78.05,1.22,0,1.84a9,9,0,0,1-9.65,8.28,9.3,9.3,0,0,1-8.1-7.12l-6-31.5-6.42-7-17.18,6.47a23.28,23.28,0,0,1-1.79,3.8l-18.4,31a9,9,0,0,1-8.39,4.35,8.94,8.94,0,0,1-8.28-9.65,10.7,10.7,0,0,1,1.22-3.88l17.08-28.68L65.85,78.74l-9.32,7.53-4.94,22.49a6.25,6.25,0,0,1-6.37,5,6,6,0,0,1-5.51-6.47,4.87,4.87,0,0,1,.1-.8l5.85-26.24a6.47,6.47,0,0,1,1.84-2.87Z"/>
      </g>
    </g>
    <g id="steps">
      <path id="step1"  class="logo_color step_color" d="M50.54,215.56H33.25V191.1H50.54Z"/>
      <path id="step2"  class="logo_color step_color" d="M117.09,215.56H99.8V191.1h17.29Z"/>
      <path id="step3"  class="logo_color step_color" d="M183.64,215.56H166.35V191.1h17.29Z"/>
      <path id="step4"  class="logo_color step_color" d="M250.19,215.56H232.9V191.1h17.29Z"/>
    </g>
  </svg>